#!OML:ASF F:\VICON\USERDATA\INSTALL\SteveWalk\SteveWalk.ASF
:FULLY-SPECIFIED
:DEGREES
303
root 0.235629 16.3113 21.951 16.032 0.51054 1.35634
lowerback -14.7514 -1.02922 -4.25118
upperback -4.76734 -0.710701 -0.847537
thorax 3.25836 -0.347445 1.3899
lowerneck -4.42283 -1.92621 -1.94246
upperneck 15.0976 -2.93277 3.41759
head 5.34563 -1.32069 1.21205
rclavicle -4.95719e-015 -1.59028e-015
rhumerus -40.9263 -11.8169 -82.4238
rradius 27.313
rwrist -9.27817
rhand -21.8071 -35.9443
rfingers 7.12502
rthumb 4.59499 -65.8744
lclavicle -4.95719e-015 -1.59028e-015
lhumerus -36.5692 17.7252 73.9468
lradius 20.786
lwrist -17.6882
lhand -16.5519 -16.4417
lfingers 7.12502
lthumb 9.6677 13.3164
rfemur -42.2262 -6.63625 20.1737
rtibia 73.2949
rfoot -5.7593 3.01797
rtoes -7.2704
lfemur -27.7974 3.12733 -26.4454
ltibia 34.2047
lfoot -21.3721 -7.25337
ltoes -2.20098
304
root 0.219468 16.3121 22.158 15.8597 0.703454 0.55257
lowerback -14.6082 -0.961065 -3.77028
upperback -4.72359 -0.709849 -0.509577
thorax 3.22796 -0.346493 1.47455
lowerneck -4.52158 -1.97869 -1.94264
upperneck 15.424 -3.00953 3.39404
head 5.46584 -1.35602 1.19881
rclavicle 1.77353e-015 2.38542e-015
rhumerus -41.8377 -13.8236 -80.844
rradius 25.4046
rwrist -7.67507
rhand -21.9152 -35.3775
rfingers 7.12502
rthumb 4.49067 -65.3099
lclavicle 1.77353e-015 2.38542e-015
lhumerus -35.1104 15.6466 75.6811
lradius 22.2421
lwrist -14.9825
lhand -17.3715 -16.6359
lfingers 7.12502
lthumb 8.87682 13.1573
rfemur -43.0638 -6.01415 21.4128
rtibia 71.8498
rfoot -6.93703 1.93028
rtoes -5.42319
lfemur -26.9532 3.95458 -25.5305
ltibia 34.2525
lfoot -21.7225 -8.05109
ltoes 0.638373
305
root 0.239641 16.3082 22.3616 15.9125 1.17678 1.02712
lowerback -14.6652 -1.08001 -3.93026
upperback -4.75146 -0.835123 -0.646711
thorax 3.2355 -0.408233 1.39893
lowerneck -4.4722 -2.08498 -1.98278
upperneck 15.6983 -3.15794 3.38629
head 5.54751 -1.42944 1.19404
rclavicle 1.29769e-014 9.14409e-015
rhumerus -42.873 -16.189 -78.8524
rradius 23.3228
rwrist -5.42987
rhand -22.0424 -34.4455
rfingers 7.12502
rthumb 4.36787 -64.3804
lclavicle 1.29769e-014 9.14409e-015
lhumerus -33.7881 13.0234 77.4549
lradius 23.7369
lwrist -11.534
lhand -17.9754 -16.7982
lfingers 7.12502
lthumb 8.29411 13.019
rfemur -44.0854 -6.61168 21.1524
rtibia 70.3285
rfoot -8.32536 1.49248
rtoes -5.83481
lfemur -26.1815 4.36998 -26.1821
ltibia 34.2859
lfoot -22.5181 -8.25332
ltoes 0.0497379
306
root 0.240289 16.2822 22.5551 15.9918 1.36918 1.50921
lowerback -14.5911 -1.14603 -4.43542
upperback -4.85791 -0.852925 -0.739932
thorax 3.08781 -0.411867 1.58454
lowerneck -4.23009 -2.19728 -2.0276
upperneck 15.8532 -3.31755 3.41017
head 5.55991 -1.50946 1.20145
rclavicle -5.75854e-015 -3.18055e-015
rhumerus -44.0733 -18.7157 -76.5464
rradius 21.3088
rwrist -2.81163
rhand -22.0274 -34.1415
rfingers 7.12502
rthumb 4.38233 -64.0762
lclavicle -5.75854e-015 -3.18055e-015
lhumerus -32.6631 10.5543 78.9083
lradius 25.316
lwrist -8.36836
lhand -18.4099 -16.7562
lfingers 7.12502
lthumb 7.87473 13.0772
rfemur -45.1926 -6.73942 20.9135
rtibia 68.6101
rfoot -9.53062 0.806878
rtoes -8.06611
lfemur -25.4276 4.78089 -26.7356
ltibia 34.2907
lfoot -23.3839 -8.22433
ltoes -0.781718
307
root 0.233266 16.26 22.7533 16.0937 1.67832 1.28339
lowerback -14.5941 -1.18115 -4.33453
upperback -4.95285 -0.921507 -0.59431
thorax 2.99468 -0.442133 1.66941
lowerneck -4.00033 -2.27704 -2.1574
upperneck 15.9757 -3.43387 3.49921
head 5.56562 -1.56919 1.24611
rclavicle -4.18069e-015 9.54166e-015
rhumerus -45.5226 -21.6327 -73.6624
rradius 19.4725
rwrist 0.601995
rhand -21.6264 -34.1897
rfingers 7.12502
rthumb 4.7695 -64.116
lclavicle -4.18069e-015 9.54166e-015
lhumerus -31.6635 8.59499 80.0115
lradius 27.0372
lwrist -5.88899
lhand -19.0493 -16.6265
lfingers 7.12502
lthumb 7.25756 13.2291
rfemur -46.114 -6.38817 21.4249
rtibia 66.5708
rfoot -10.5846 -0.106731
rtoes -8.28399
lfemur -24.6665 5.17526 -26.3891
ltibia 34.1588
lfoot -24.1393 -8.34851
ltoes -1.72389
308
root 0.231397 16.2494 22.9644 16.1378 2.21486 0.918951
lowerback -14.7379 -1.28643 -3.95645
upperback -4.9778 -1.11259 -0.437942
thorax 3.05497 -0.537903 1.58567
lowerneck -3.85052 -2.29909 -2.14831
upperneck 16.1557 -3.47491 3.51437
head 5.59736 -1.58786 1.24839
rclavicle -1.10574e-014 -6.75868e-015
rhumerus -47.2823 -24.2845 -70.6358
rradius 18.0116
rwrist 3.93857
rhand -21.246 -34.0152
rfingers 7.12502
rthumb 5.13678 -63.9329
lclavicle -1.10574e-014 -6.75868e-015
lhumerus -30.7539 6.79802 80.842
lradius 28.8217
lwrist -3.69743
lhand -19.3049 -16.2796
lfingers 7.12502
lthumb 7.01086 13.5843
rfemur -46.6946 -6.28008 22.0882
rtibia 64.2138
rfoot -11.4674 -1.0072
rtoes -8.53519
lfemur -23.7857 5.48746 -25.8503
ltibia 33.9673
lfoot -24.602 -8.8414
ltoes -1.55086
309
root 0.229706 16.2439 23.1715 16.2042 2.78113 1.04248
lowerback -14.7978 -1.47479 -4.10795
upperback -4.90805 -1.33653 -0.367442
thorax 3.17755 -0.650751 1.70436
lowerneck -3.99467 -2.31251 -2.20082
upperneck 16.2549 -3.49315 3.54003
head 5.65499 -1.59547 1.26215
rclavicle -3.57191e-016 1.19271e-014
rhumerus -49.0555 -27.2144 -67.0273
rradius 16.3462
rwrist 7.69911
rhand -21.5336 -33.9055
rfingers 7.12502
rthumb 4.85915 -63.8298
lclavicle -3.57191e-016 1.19271e-014
lhumerus -29.6561 5.09102 81.6357
lradius 30.5534
lwrist -1.56417
lhand -19.0616 -16.1025
lfingers 7.12502
lthumb 7.24566 13.7535
rfemur -47.2257 -6.43 22.2379
rtibia 61.6405
rfoot -11.8688 -1.86464
rtoes -9.39408
lfemur -22.8071 5.60518 -25.8247
ltibia 33.5791
lfoot -24.9008 -9.2654
ltoes -1.64687
310
root 0.234363 16.2439 23.3748 16.2992 3.36518 1.04657
lowerback -14.811 -1.56139 -4.03266
upperback -4.83086 -1.45983 -0.323611
thorax 3.27308 -0.714146 1.68504
lowerneck -4.04507 -2.38437 -2.26459
upperneck 16.1813 -3.60128 3.66907
head 5.64738 -1.6428 1.3059
rclavicle -1.4196e-014 -1.11319e-014
rhumerus -51.4678 -30.4881 -62.6212
rradius 14.9241
rwrist 11.9978
rhand -21.4568 -34.0458
rfingers 7.12502
rthumb 4.93324 -63.9684
lclavicle -1.4196e-014 -1.11319e-014
lhumerus -28.3934 3.26464 82.3833
lradius 31.9982
lwrist 0.613024
lhand -19.1251 -16.6083
lfingers 7.12502
lthumb 7.18439 13.2498
rfemur -47.7127 -6.57153 22.4632
rtibia 58.7912
rfoot -11.8538 -2.75681
rtoes -8.71732
lfemur -21.7799 5.62551 -25.6483
ltibia 32.9877
lfoot -24.8311 -9.86604
ltoes -0.2575
311
root 0.234085 16.2479 23.5779 16.2972 3.72822 1.29468
lowerback -14.7778 -1.61908 -4.25783
upperback -4.70532 -1.49956 -0.363489
thorax 3.39358 -0.737187 1.76214
lowerneck -4.06722 -2.51675 -2.29082
upperneck 16.065 -3.77937 3.70139
head 5.62172 -1.7293 1.30904
rclavicle 6.07458e-015 1.55052e-014
rhumerus -54.3591 -33.6274 -57.8226
rradius 13.9759
rwrist 16.5892
rhand -20.8906 -34.9712
rfingers 7.12502
rthumb 5.48 -64.8803
lclavicle 6.07458e-015 1.55052e-014
lhumerus -27.1962 1.58752 82.9506
lradius 33.4924
lwrist 2.22529
lhand -19.4521 -16.6225
lfingers 7.12502
lthumb 6.86877 13.246
rfemur -48.0967 -6.52094 22.3108
rtibia 55.7962
rfoot -11.9641 -3.63798
rtoes -5.52811
lfemur -20.5401 5.70627 -25.7398
ltibia 32.1915
lfoot -24.7205 -10.4571
ltoes 1.24067
